<svg id="Layer_1" data-name="Layer 1" xmlns="http://www.w3.org/2000/svg" viewBox="0 0 1920 1080"><defs><style>.cls-1{fill:#fff;}.cls-2{fill:#c2272f;}</style></defs><rect width="1920" height="1080"/><path class="cls-1" d="M230.51,455.59s169.53,83,233.74,44l28.86,202Z"/><path class="cls-2" d="M508.21,378.4l272.7,253.94s-212.82-118.31-272.7-13Z"/><path class="cls-1" d="M852.09,419a2.41,2.41,0,0,1,2.42-2.41h30.58c15.61,0,28.43,12.69,28.43,28a28.55,28.55,0,0,1-28.3,28.56H871.89V503a2.49,2.49,0,0,1-2.41,2.41h-15a2.41,2.41,0,0,1-2.42-2.41ZM884,454.61a10,10,0,0,0,10-10c0-5.33-4.57-9.39-10-9.39H871.89v19.42Z"/><path class="cls-1" d="M927.1,419a2.49,2.49,0,0,1,2.41-2.41h15.23a2.49,2.49,0,0,1,2.41,2.41v84a2.49,2.49,0,0,1-2.41,2.41H929.51A2.49,2.49,0,0,1,927.1,503Z"/><path class="cls-1" d="M969.49,417.55a2.38,2.38,0,0,1,2.41-2.28h3.17L1025.71,464h.12V419a2.41,2.41,0,0,1,2.42-2.41h15.23a2.5,2.5,0,0,1,2.41,2.41v85.41a2.39,2.39,0,0,1-2.41,2.28h-2a3.81,3.81,0,0,1-1.65-.63l-50.12-50.39h-.13V503a2.41,2.41,0,0,1-2.41,2.41H972a2.49,2.49,0,0,1-2.41-2.41Z"/><path class="cls-1" d="M1068.35,419a2.41,2.41,0,0,1,2.41-2.41h30.59c15.61,0,28.43,12.69,28.43,28a28.55,28.55,0,0,1-28.3,28.56h-13.33V503a2.49,2.49,0,0,1-2.41,2.41h-15a2.41,2.41,0,0,1-2.41-2.41Zm31.86,35.66a10,10,0,0,0,10-10c0-5.33-4.57-9.39-10-9.39h-12.06v19.42Z"/><path class="cls-1" d="M1182.83,415.27a45.69,45.69,0,1,1-45.56,45.81A45.6,45.6,0,0,1,1182.83,415.27Zm0,71.06a25.38,25.38,0,1,0-25.26-25.25A25.43,25.43,0,0,0,1182.83,486.33Z"/><path class="cls-1" d="M1244.51,419a2.49,2.49,0,0,1,2.41-2.41h15.23a2.49,2.49,0,0,1,2.41,2.41v84a2.49,2.49,0,0,1-2.41,2.41h-15.23a2.49,2.49,0,0,1-2.41-2.41Z"/><path class="cls-1" d="M1286.9,417.55a2.38,2.38,0,0,1,2.41-2.28h3.17L1343.12,464h.12V419a2.41,2.41,0,0,1,2.41-2.41h15.23a2.49,2.49,0,0,1,2.41,2.41v85.41a2.39,2.39,0,0,1-2.41,2.28h-2a3.81,3.81,0,0,1-1.65-.63l-50.13-50.39H1307V503a2.41,2.41,0,0,1-2.41,2.41h-15.11A2.5,2.5,0,0,1,1287,503Z"/><path class="cls-1" d="M1397.18,435.19H1379a2.41,2.41,0,0,1-2.42-2.41V419a2.41,2.41,0,0,1,2.42-2.41h56.34a2.4,2.4,0,0,1,2.41,2.41v13.83a2.4,2.4,0,0,1-2.41,2.41h-18.15V503a2.49,2.49,0,0,1-2.41,2.41h-15.23a2.5,2.5,0,0,1-2.41-2.41Z"/><path class="cls-1" d="M847,645.61l6-10.53c1-1.65,3.43-1.4,4.32-.76.51.25,9.64,7,18,7,5.07,0,8.75-3.18,8.75-7.62,0-5.33-4.44-9.39-13.07-12.81-10.91-4.32-24.62-12.82-24.62-28,0-12.56,9.78-25.26,29.32-25.26,13.2,0,23.35,6.73,27.16,9.52,1.52.89,1.27,3.18.76,4.06l-6.47,9.78c-.89,1.39-3.18,2.53-4.32,1.65-1.14-.64-10.4-7.62-18.15-7.62-4.56,0-8,3-8,6.47,0,4.7,3.81,8.25,13.83,12.31s25.64,11.68,25.64,28.94c0,13.07-11.3,26.27-29.95,26.27-16.5,0-25.64-6.86-28.56-9.77C846.38,647.9,846,647.39,847,645.61Z"/><path class="cls-1" d="M922.28,571.25a2.5,2.5,0,0,1,2.41-2.42h15.23a2.5,2.5,0,0,1,2.41,2.42v84a2.49,2.49,0,0,1-2.41,2.41H924.69a2.49,2.49,0,0,1-2.41-2.41Z"/><path class="cls-1" d="M973.55,569.6a2.42,2.42,0,0,1,2.28-2h2a2.8,2.8,0,0,1,2.16,1.27l29.44,54.83h.26l29.44-54.83a2.8,2.8,0,0,1,2.16-1.27h2a2.43,2.43,0,0,1,2.28,2L1060,654.88a2.32,2.32,0,0,1-2.41,2.79h-15a2.59,2.59,0,0,1-2.41-2l-5.71-39.22h-.25l-21.32,41.12a3,3,0,0,1-2.16,1.4h-2.28a2.77,2.77,0,0,1-2.16-1.4l-21.45-41.12h-.25L979,655.64a2.47,2.47,0,0,1-2.41,2h-15a2.32,2.32,0,0,1-2.41-2.79Z"/><path class="cls-1" d="M1075.59,571.25a2.5,2.5,0,0,1,2.41-2.42h15.61a2.42,2.42,0,0,1,2.41,2.42v51.39c0,8.89,6.6,16,15.61,16a15.65,15.65,0,0,0,15.86-16V571.25a2.42,2.42,0,0,1,2.41-2.42h15.61a2.5,2.5,0,0,1,2.41,2.42v52.41c0,19.29-16.24,35.28-36.29,35.28s-36-16-36-35.28Z"/><path class="cls-1" d="M1169,571.25a2.42,2.42,0,0,1,2.42-2.42h15.1a2.5,2.5,0,0,1,2.41,2.42V639h30.2a2.41,2.41,0,0,1,2.41,2.41v13.84a2.4,2.4,0,0,1-2.41,2.41h-47.71a2.41,2.41,0,0,1-2.42-2.41Z"/><path class="cls-1" d="M1227.25,654.37,1267,569a2.58,2.58,0,0,1,2.15-1.4h1.27a2.58,2.58,0,0,1,2.16,1.4l39.72,85.41a2.24,2.24,0,0,1-2.15,3.3H1296c-2.28,0-3.3-.76-4.44-3.17l-4.57-10H1252.5l-4.57,10.15a4.71,4.71,0,0,1-4.57,3h-14A2.24,2.24,0,0,1,1227.25,654.37Zm52.15-27.16-9.64-20.94h-.13l-9.52,20.94Z"/><path class="cls-1" d="M1330.17,587.49H1312a2.41,2.41,0,0,1-2.41-2.41V571.25a2.42,2.42,0,0,1,2.41-2.42h56.35a2.41,2.41,0,0,1,2.41,2.42v13.83a2.4,2.4,0,0,1-2.41,2.41h-18.15v67.77a2.49,2.49,0,0,1-2.41,2.41h-15.23a2.49,2.49,0,0,1-2.41-2.41Z"/><path class="cls-1" d="M1384.11,571.25a2.5,2.5,0,0,1,2.41-2.42h15.23a2.5,2.5,0,0,1,2.41,2.42v84a2.49,2.49,0,0,1-2.41,2.41h-15.23a2.49,2.49,0,0,1-2.41-2.41Z"/><path class="cls-1" d="M1465.71,567.56a45.69,45.69,0,1,1-45.56,45.82A45.61,45.61,0,0,1,1465.71,567.56Zm0,71.07a25.38,25.38,0,1,0-25.25-25.25A25.43,25.43,0,0,0,1465.71,638.63Z"/><path class="cls-1" d="M1527.27,569.85a2.39,2.39,0,0,1,2.41-2.29h3.17l50.64,48.74h.12v-45a2.42,2.42,0,0,1,2.41-2.42h15.23a2.5,2.5,0,0,1,2.41,2.42v85.4a2.39,2.39,0,0,1-2.41,2.29h-2a3.71,3.71,0,0,1-1.65-.64l-50.13-50.38h-.12v47.34a2.41,2.41,0,0,1-2.41,2.41H1529.8a2.5,2.5,0,0,1-2.41-2.41Z"/><path class="cls-1" d="M1621.06,645.61l6-10.53c1-1.65,3.43-1.4,4.31-.76.51.25,9.65,7,18,7,5.07,0,8.75-3.18,8.75-7.62,0-5.33-4.44-9.39-13.07-12.81-10.91-4.32-24.62-12.82-24.62-28,0-12.56,9.77-25.26,29.32-25.26,13.19,0,23.35,6.73,27.15,9.52,1.53.89,1.27,3.18.77,4.06l-6.48,9.78c-.88,1.39-3.17,2.53-4.31,1.65-1.14-.64-10.41-7.62-18.15-7.62-4.57,0-8,3-8,6.47,0,4.7,3.8,8.25,13.83,12.31s25.63,11.68,25.63,28.94c0,13.07-11.29,26.27-30,26.27-16.49,0-25.63-6.86-28.55-9.77C1620.42,647.9,1620,647.39,1621.06,645.61Z"/></svg>